<svg width="639" height="499" viewBox="0 0 639 499" fill="none" xmlns="http://www.w3.org/2000/svg">
  <path d="M613.285 410.854V453.292H72.0967V22.8655H613.285V273.082" stroke="#BEBEBE" stroke-width="2.02807" stroke-miterlimit="10"/>
  <path d="M112.744 47.7732C115.59 47.7732 117.897 45.4578 117.897 42.6016C117.897 39.7454 115.59 37.4299 112.744 37.4299C109.899 37.4299 107.592 39.7454 107.592 42.6016C107.592 45.4578 109.899 47.7732 112.744 47.7732Z" stroke="#BEBEBE" stroke-width="2.02807" stroke-miterlimit="10"/>
  <path d="M94.5225 47.7732C97.3681 47.7732 99.6749 45.4578 99.6749 42.6016C99.6749 39.7454 97.3681 37.4299 94.5225 37.4299C91.6769 37.4299 89.3701 39.7454 89.3701 42.6016C89.3701 45.4578 91.6769 47.7732 94.5225 47.7732Z" stroke="#BEBEBE" stroke-width="2.02807" stroke-miterlimit="10"/>
  <path d="M130.969 47.7732C133.814 47.7732 136.121 45.4578 136.121 42.6016C136.121 39.7454 133.814 37.4299 130.969 37.4299C128.123 37.4299 125.816 39.7454 125.816 42.6016C125.816 45.4578 128.123 47.7732 130.969 47.7732Z" stroke="#BEBEBE" stroke-width="2.02807" stroke-miterlimit="10"/>
  <path d="M342.709 162.652V62.6415" stroke="#BEBEBE" stroke-width="2.02807" stroke-miterlimit="10"/>
  <path d="M342.709 429.715V184.784" stroke="#BEBEBE" stroke-width="2.02807" stroke-miterlimit="10"/>
  <path d="M326.874 429.715V184.784" stroke="#BEBEBE" stroke-width="2.02807" stroke-miterlimit="10"/>
  <path d="M457.047 429.715H89.4482V62.6415H595.934V255.362" stroke="#BEBEBE" stroke-width="2.02807" stroke-miterlimit="10"/>
  <path d="M342.901 246.197H468.642" stroke="#BEBEBE" stroke-width="2.02807" stroke-miterlimit="10"/>
  <path d="M89.4482 246.197H327.177" stroke="#BEBEBE" stroke-width="2.02807" stroke-miterlimit="10"/>
  <path d="M394.424 109.491L404.729 96.5234L394.424 83.5563" stroke="#BEBEBE" stroke-width="2.02807" stroke-miterlimit="10"/>
  <path d="M375.556 83.5563L365.251 96.5234L375.556 109.491" stroke="#BEBEBE" stroke-width="2.02807" stroke-miterlimit="10"/>
  <path d="M525.769 453.634C587.2 453.634 636.999 403.648 636.999 341.987C636.999 280.326 587.2 230.34 525.769 230.34C464.338 230.34 414.538 280.326 414.538 341.987C414.538 403.648 464.338 453.634 525.769 453.634Z" stroke="#BEBEBE" stroke-width="2.02807" stroke-miterlimit="10"/>
  <path d="M582.671 284.871L505.689 321.795L468.864 399.104L545.885 362.141L582.671 284.871Z" stroke="#BEBEBE" stroke-width="2.02807" stroke-miterlimit="10"/>
  <path d="M525.768 353.623C532.17 353.623 537.36 348.413 537.36 341.987C537.36 335.56 532.17 330.351 525.768 330.351C519.365 330.351 514.175 335.56 514.175 341.987C514.175 348.413 519.365 353.623 525.768 353.623Z" stroke="#BEBEBE" stroke-width="2.02807" stroke-miterlimit="10"/>
  <path d="M446.587 347.805C449.789 347.805 452.384 345.2 452.384 341.987C452.384 338.774 449.789 336.169 446.587 336.169C443.386 336.169 440.791 338.774 440.791 341.987C440.791 345.2 443.386 347.805 446.587 347.805Z" stroke="#BEBEBE" stroke-width="2.02807" stroke-miterlimit="10"/>
  <path d="M604.947 347.805C608.148 347.805 610.743 345.2 610.743 341.987C610.743 338.774 608.148 336.169 604.947 336.169C601.746 336.169 599.15 338.774 599.15 341.987C599.15 345.2 601.746 347.805 604.947 347.805Z" stroke="#BEBEBE" stroke-width="2.02807" stroke-miterlimit="10"/>
  <path d="M525.769 427.281C528.97 427.281 531.566 424.676 531.566 421.463C531.566 418.25 528.97 415.645 525.769 415.645C522.568 415.645 519.973 418.25 519.973 421.463C519.973 424.676 522.568 427.281 525.769 427.281Z" stroke="#BEBEBE" stroke-width="2.02807" stroke-miterlimit="10"/>
  <path d="M525.769 268.329C528.97 268.329 531.565 265.724 531.565 262.511C531.565 259.297 528.97 256.693 525.769 256.693C522.568 256.693 519.973 259.297 519.973 262.511C519.973 265.724 522.568 268.329 525.769 268.329Z" stroke="#BEBEBE" stroke-width="2.02807" stroke-miterlimit="10"/>
  <path d="M525.77 436.56C577.806 436.56 619.99 394.218 619.99 341.987C619.99 289.756 577.806 247.414 525.77 247.414C473.734 247.414 431.55 289.756 431.55 341.987C431.55 394.218 473.734 436.56 525.77 436.56Z" stroke="#BEBEBE" stroke-width="2.02807" stroke-miterlimit="10"/>
  <path d="M326.874 146.415V62.4894" stroke="#BEBEBE" stroke-width="2.02807" stroke-miterlimit="10"/>
  <path d="M300.165 118.579L300.392 213.114L326.533 183.301L365.933 186.229L300.165 118.579Z" stroke="#BEBEBE" stroke-width="2.02807" stroke-miterlimit="10"/>
  <path d="M112.027 300.081V499" stroke="#19194A" stroke-width="2.02807" stroke-miterlimit="10"/>
  <path d="M81.9851 88.842H54.8594L64.4064 118.313C67.5888 128.124 81.9851 125.804 81.9851 115.499V95.7249V88.842Z" fill="#D90855"/>
  <path d="M227.161 1L120.06 242.433" stroke="#19194A" stroke-width="2.02807" stroke-miterlimit="10"/>
  <path d="M116.61 287.228H106.23L36.9758 247.11L40.8401 210.186H0V218.894V253.993C0 263.348 5.98585 271.599 14.851 274.489L105.434 304.036C107.594 304.721 109.829 305.101 112.064 305.101H116.648C121.573 305.101 125.551 301.108 125.551 296.165C125.513 291.221 121.535 287.228 116.61 287.228Z" fill="#D90855"/>
  <path d="M401.429 280.46L383.471 274.604L373.849 296.279L391.806 302.135L401.429 280.46H401.467H401.429Z" fill="#F6F6F6"/>
  <path d="M332.481 342.748C331.95 345.714 330.662 348.528 328.768 350.885L325.699 354.688L322.934 381.193L343.922 400.13V329.058L343.126 329.4C337.519 331.796 333.541 336.815 332.481 342.748Z" fill="#D90855"/>
  <path d="M238.79 231.823H132.029L66.6396 245.779L66.7533 245.931L88.1205 275.44C98.0843 289.206 115.208 295.822 131.802 292.286L242.351 268.709L367.978 309.664L383.511 274.603L265.385 236.082C256.747 233.268 247.806 231.823 238.79 231.823Z" fill="#19194A"/>
  <path d="M139.834 114.89C130.628 109.567 119.793 107.855 109.412 110.061L17.0104 129.759C7.08452 131.888 0 140.673 0 150.864V210.186H40.878L66.6399 245.779L132.03 231.823V160.219L144.191 164.173L160.671 126.983L139.834 114.89Z" fill="#F6F6F6"/>
  <path d="M416.773 270.915C413.742 274.527 409.802 277.303 405.408 278.976L401.468 280.46L391.845 302.135L418.895 310.957L441.02 261.066L437.383 261.104C429.389 261.256 421.888 264.83 416.773 270.915Z" fill="#D90855"/>
  <path d="M182.378 83.5184C182.378 89.1463 186.924 93.7096 192.531 93.7096H195.789L185.674 141.471L160.669 126.983L144.189 164.173L181.544 176.342C195.41 180.867 209.655 170.486 209.655 155.845V90.5153C209.655 81.0466 202.002 73.3271 192.531 73.3271C186.924 73.3271 182.378 77.8904 182.378 83.5184Z" fill="#D90855"/>
  <path d="M67.7378 95.1924H85.5438V92.6827C85.5438 81.2366 76.2998 71.958 64.8964 71.958C53.493 71.958 44.249 81.2366 44.249 92.6827V131.394H75.4285L67.7378 95.1924Z" fill="#19194A"/>
  <path d="M67.624 106.905H72.4733V95.1926H65.654C62.9641 95.1926 60.8047 97.3602 60.8047 100.06C60.8047 103.863 63.8355 106.905 67.624 106.905Z" fill="#D90855"/>
  <path d="M322.893 381.193L325.659 354.688L317.475 347.273L301.412 361.799L322.893 381.193Z" fill="#F6F6F6"/>
  <path d="M232.766 270.725L187.039 280.459L289.215 372.827L317.477 347.273L232.766 270.725Z" fill="#43447C"/>
</svg>
